<?xml version="1.0" standalone="no"?>
<!DOCTYPE svg PUBLIC "-//W3C//DTD SVG 20010904//EN"
 "http://www.w3.org/TR/2001/REC-SVG-20010904/DTD/svg10.dtd">
<svg version="1.0" xmlns="http://www.w3.org/2000/svg"
 width="96.000000pt" height="96.000000pt" viewBox="0 0 96.000000 96.000000"
 preserveAspectRatio="xMidYMid meet">

<g transform="translate(0.000000,96.000000) scale(0.100000,-0.100000)"
fill="#000000" stroke="none">
<path d="M460 761 c0 -7 5 -9 10 -6 6 4 10 -10 10 -34 l0 -41 40 0 c33 0 40
-3 40 -20 0 -11 5 -20 10 -20 6 0 10 7 10 15 0 8 5 15 11 15 6 0 9 6 6 14 -3
7 0 19 6 25 8 8 8 11 -1 11 -7 0 -14 -1 -16 -2 -3 -2 -15 7 -29 20 -27 26 -97
42 -97 23z"/>
<path d="M381 733 c-6 -10 -11 -14 -11 -9 0 6 -9 0 -21 -13 -12 -12 -27 -20
-35 -17 -7 3 -16 2 -18 -3 -3 -4 11 -13 30 -20 18 -7 34 -17 34 -22 0 -5 18
-9 40 -9 40 0 40 0 40 39 0 33 -4 40 -22 43 -13 2 -22 9 -20 16 3 17 -5 15
-17 -5z"/>
<path d="M625 690 c3 -6 12 -10 20 -10 7 0 16 -5 18 -10 3 -6 4 -5 3 1 -1 7
-12 16 -25 20 -14 6 -20 5 -16 -1z"/>
<path d="M272 570 c0 -63 2 -109 5 -102 2 6 13 12 24 12 17 0 19 8 19 70 0 63
-2 70 -19 70 -15 0 -21 8 -24 33 -2 17 -4 -20 -5 -83z"/>
<path d="M190 463 c0 -5 5 -15 10 -23 8 -12 10 -11 10 8 0 12 -4 22 -10 22 -5
0 -10 -3 -10 -7z"/>
<path d="M733 449 c-2 -23 3 -25 10 -4 4 8 3 16 -1 19 -4 3 -9 -4 -9 -15z"/>
<path d="M175 420 c-9 -15 4 -30 20 -23 8 3 15 9 15 13 0 12 -29 20 -35 10z"/>
<path d="M756 388 c3 -4 0 -8 -6 -8 -6 0 -8 -4 -5 -10 3 -5 11 -10 17 -10 6 0
8 3 5 7 -4 3 -2 11 3 18 7 8 5 12 -5 12 -8 0 -12 -4 -9 -9z"/>
<path d="M141 354 c-1 -15 24 -36 32 -27 12 12 7 25 -7 20 -8 -3 -17 -1 -20 6
-3 8 -5 8 -5 1z"/>
<path d="M775 320 c-3 -5 -1 -10 4 -10 6 0 11 5 11 10 0 6 -2 10 -4 10 -3 0
-8 -4 -11 -10z"/>
<path d="M804 302 c-9 -5 -8 -10 2 -19 8 -8 15 -9 19 -3 3 6 1 10 -5 10 -6 0
-8 5 -5 10 7 12 4 12 -11 2z"/>
<path d="M113 280 c2 -8 -2 -23 -11 -32 -11 -13 -12 -18 -2 -18 10 0 9 -4 -1
-17 -13 -17 -13 -17 5 -3 15 11 20 12 23 3 7 -19 30 -15 36 6 4 15 -1 17 -24
15 -28 -4 -41 10 -17 18 8 3 8 9 -1 24 -7 10 -10 12 -8 4z"/>
<path d="M842 220 c0 -14 2 -19 5 -12 2 6 2 18 0 25 -3 6 -5 1 -5 -13z"/>
</g>
</svg>
